<?xml version="1.0" standalone="no"?>
<!DOCTYPE svg PUBLIC "-//W3C//DTD SVG 20010904//EN"
 "http://www.w3.org/TR/2001/REC-SVG-20010904/DTD/svg10.dtd">
<svg version="1.0" xmlns="http://www.w3.org/2000/svg"
 width="1280.000000pt" height="1193.000000pt" viewBox="0 0 1280.000000 1193.000000"
 preserveAspectRatio="xMidYMid meet">
<metadata>
Created by potrace 1.15, written by Peter Selinger 2001-2017
</metadata>
<g transform="translate(0.000000,1193.000000) scale(0.100000,-0.100000)"
fill="#ffffff" stroke="none">
<path d="M6325 11919 c-389 -47 -758 -198 -1070 -438 -168 -129 -383 -366
-512 -563 l-63 -97 -103 48 c-553 259 -1159 248 -1712 -32 -572 -289 -975
-831 -1088 -1462 -17 -98 -21 -160 -22 -335 0 -118 2 -248 5 -288 l5 -74 -97
-33 c-553 -189 -971 -680 -1063 -1249 -35 -216 -29 -377 21 -576 13 -52 21
-97 16 -101 -4 -4 -33 -28 -65 -53 -230 -177 -406 -415 -495 -667 -59 -168
-77 -275 -76 -469 0 -194 18 -305 76 -475 119 -346 380 -647 707 -813 139 -71
206 -95 409 -144 34 -9 484 -13 1621 -17 l1574 -6 23 -85 c136 -514 555 -917
1079 -1038 141 -33 273 -42 609 -42 l312 0 11 -93 c35 -294 226 -560 498 -692
135 -66 197 -80 355 -79 154 0 227 17 361 84 270 136 466 416 486 697 l6 82
1681 4 c1880 3 1746 -2 1984 76 135 44 233 91 347 166 588 389 816 1149 532
1780 -99 221 -260 422 -457 570 -36 27 -67 50 -69 52 -2 1 6 38 17 80 48 175
59 306 43 473 -27 262 -97 472 -230 694 -47 77 -51 89 -51 147 0 114 -20 301
-45 422 -58 285 -193 570 -382 811 -77 98 -270 288 -374 369 l-86 66 5 125
c13 335 -96 724 -291 1044 -363 595 -1016 969 -1697 974 -160 1 -198 -5 -404
-63 -76 -22 -142 -37 -146 -32 -5 4 -33 54 -64 111 -331 609 -912 1023 -1581
1127 -123 19 -431 27 -540 14z"/>
<path d="M1965 3779 c-225 -32 -431 -217 -490 -439 -23 -88 -19 -215 10 -307
61 -191 239 -359 430 -404 79 -18 210 -13 285 10 185 58 344 218 403 406 118
380 -240 792 -638 734z"/>
<path d="M4072 2891 c-246 -62 -458 -257 -538 -492 -45 -133 -48 -298 -8 -424
38 -116 95 -207 194 -306 85 -86 107 -102 200 -147 123 -59 192 -76 315 -75
303 1 591 217 693 520 23 69 26 93 26 213 0 119 -3 144 -26 207 -85 238 -265
416 -496 490 -106 34 -258 40 -360 14z"/>
<path d="M10655 2316 c-220 -51 -404 -231 -455 -446 -83 -347 207 -704 570
-703 157 0 281 54 399 172 235 233 243 561 19 796 -74 78 -146 126 -245 162
-84 30 -204 38 -288 19z"/>
<path d="M8600 1634 c-351 -68 -630 -316 -717 -638 -22 -84 -22 -261 0 -346
66 -246 266 -474 504 -574 132 -55 208 -71 348 -70 156 1 245 22 380 89 244
121 418 338 472 588 20 97 13 258 -17 347 -48 145 -110 243 -225 355 -100 98
-212 167 -348 213 -94 32 -113 35 -237 38 -74 1 -146 0 -160 -2z"/>
<path d="M2235 1443 c-292 -65 -500 -328 -482 -608 9 -146 67 -273 175 -379
122 -120 242 -171 402 -171 154 1 283 57 399 174 232 232 229 582 -5 817 -78
79 -192 143 -292 163 -52 11 -158 13 -197 4z"/>
<path d="M5742 1159 c-254 -37 -470 -256 -504 -510 -35 -265 145 -532 422
-625 85 -28 234 -26 329 5 189 62 347 229 396 418 19 73 19 202 0 273 -27 103
-74 180 -160 266 -62 62 -98 90 -155 117 -114 53 -220 71 -328 56z"/>
</g>
</svg>
